<svg width="65" height="90" viewBox="0 0 65 90" fill="none" xmlns="http://www.w3.org/2000/svg">
    <rect x="1.54709" y="17.5183" width="50" height="73" rx="5" transform="rotate(-11.1505 1.54709 17.5183)" fill="#53A6ED" fill-opacity="0.23"/>
    <rect x="6.80035" y="44.1701" width="50" height="45.8354" rx="5" transform="rotate(-11.1505 6.80035 44.1701)" fill="#53A6ED"/>
    <path d="M14.3017 15.0043C13.7602 12.2569 13.4894 10.8832 13.8172 9.72845C14.1056 8.71269 14.7082 7.81431 15.5385 7.16205C16.4825 6.42053 17.8562 6.14977 20.6036 5.60823L29.4337 3.86775C32.1811 3.32621 33.5548 3.05545 34.7096 3.38329C35.7253 3.67166 36.6237 4.27421 37.2759 5.10455C38.0175 6.04853 38.2882 7.42223 38.8298 10.1696L14.3017 15.0043Z" fill="#53A6ED" fill-opacity="0.23"/>
    <path d="M33.3555 41.8259L39.7257 40.5702L35.3082 49.6341L40.724 48.7822L36.2955 55.6921L37.7299 55.625L30.6427 64.7839L32.7178 57.4754L30.1299 57.9855L33.6503 52.7638L28.0764 53.8625L33.3555 41.8259Z" fill="white"/>
</svg>
