<svg width="76" height="76" viewBox="0 0 76 76" fill="none" xmlns="http://www.w3.org/2000/svg">
    <path d="M29.9109 37.8771L37.1649 14.0308H48.3859L41.0186 31.6512H51.4462L29.2308 64.3077L38.6384 37.8771H29.9109Z" fill="#C7EDB9"/>
    <path d="M29.2308 64.3077L38.9965 37.4154H47.9385L29.2308 64.3077Z" fill="#50D123"/>
    <path d="M2.19978 50.7415C-0.596481 42.8847 -0.730495 34.3262 1.81841 26.3857C4.36731 18.4452 9.45757 11.5637 16.3043 6.80231C23.151 2.04092 31.3739 -0.335924 39.7051 0.0382724C48.0362 0.412469 56.0129 3.51693 62.4052 8.87295L58.6369 13.3704C53.2316 8.8414 46.4865 6.2163 39.4418 5.89988C32.397 5.58346 25.4438 7.5933 19.6543 11.6195C13.8648 15.6457 9.56048 21.4646 7.40515 28.179C5.24981 34.8934 5.36314 42.1304 7.72763 48.7741L2.19978 50.7415Z" fill="#C7EDB9"/>
    <path d="M2.19978 50.7415C0.519141 46.0193 -0.210678 41.0113 0.0523617 36.0058L5.91179 36.3137C5.68937 40.5463 6.3065 44.781 7.72763 48.7741L2.19978 50.7415Z" fill="#50D123"/>
    <path d="M63.4346 6.57374C64.0452 5.89863 65.1669 6.32419 65.1761 7.23445L65.2455 14.0963C65.2507 14.6176 64.8547 15.0554 64.3355 15.1023L57.5011 15.7195C56.5945 15.8014 56.0589 14.7279 56.6695 14.0528L63.4346 6.57374Z" fill="#C7EDB9"/>
    <path d="M73.9637 25.7275C76.602 33.459 76.6786 41.8349 74.1819 49.6134C71.6852 57.3918 66.7483 64.1586 60.1032 68.9103C53.4581 73.6621 45.4585 76.1459 37.2906 75.9934C29.1228 75.8409 21.2215 73.0602 14.7584 68.0637L18.3471 63.4216C23.8122 67.6466 30.4935 69.9979 37.4002 70.1269C44.3068 70.2558 51.0712 68.1556 56.6903 64.1375C62.3094 60.1195 66.484 54.3975 68.5951 47.8202C70.7063 41.2428 70.6416 34.1602 68.4106 27.6225L73.9637 25.7275Z" fill="#C7EDB9"/>
    <path d="M14.1324 70.4182C13.5764 71.139 12.4248 70.8025 12.3445 69.8957L11.7387 63.0603C11.6926 62.5411 12.0533 62.0736 12.5672 61.9862L19.3324 60.8364C20.2298 60.6839 20.8477 61.7122 20.2917 62.433L14.1324 70.4182Z" fill="#D9D9D9"/>
    <path d="M76 38C76 45.0787 74.0228 52.0168 70.2911 58.032C66.5595 64.0473 61.2219 68.9007 54.8799 72.0451C48.5378 75.1895 41.4436 76.5 34.3967 75.8288C27.3499 75.1576 20.6306 72.5313 14.9963 68.2461L18.5483 63.5759C23.3126 67.1994 28.9944 69.4201 34.9531 69.9877C40.9119 70.5553 46.9107 69.4472 52.2735 66.7883C57.6362 64.1294 62.1497 60.0254 65.3051 54.9389C68.4605 49.8525 70.1325 43.9857 70.1325 38H76Z" fill="#50D123"/>
    <path d="M14.1324 70.4182C13.5764 71.139 12.4248 70.8025 12.3445 69.8957L11.7387 63.0603C11.6926 62.5411 12.0533 62.0736 12.5672 61.9862L19.3324 60.8364C20.2298 60.6839 20.8477 61.7122 20.2917 62.433L14.1324 70.4182Z" fill="#50D123"/>
</svg>
