<svg width="67" height="80" viewBox="0 0 67 80" fill="none" xmlns="http://www.w3.org/2000/svg">
    <path d="M17.5343 69.0178C11.8763 65.7514 6.64864 60.5275 3.72261 54.6862C0.796586 48.845 -0.351526 42.2736 0.420495 35.7862C1.19252 29.2989 3.85075 23.1805 8.06591 18.189C12.2811 13.1976 17.8679 9.55237 24.1344 7.70495L22.3842 13.617C18.4669 15.2958 15.736 17.5026 12.2048 21.6842C8.67347 25.8658 6.44651 30.9915 5.79974 36.4264C5.15298 41.8612 6.11482 47.3664 8.56612 52.26C11.0174 57.1536 14.8505 61.2205 19.5905 63.957L17.5343 69.0178Z" fill="#ff0000" fill-opacity="0.26"/>
    <path d="M49.4317 10.0729C56.3614 13.8543 61.8655 20.3177 64.715 27.6798C67.5644 35.0419 67.7132 43.1754 65.135 50.6368C62.5568 58.0982 57.4183 64.4048 50.6315 68.4371C43.8448 72.4695 35.8488 73.9668 28.0629 72.6633L31.3378 67.7121C36.5608 68.2717 42.1788 67.1581 47.8644 63.7799C53.5501 60.4018 57.8549 55.1184 60.0149 48.8676C62.1748 42.6168 62.0501 35.8028 59.663 29.6351C57.2758 23.4675 52.7806 18.3451 46.9752 15.1773L49.4317 10.0729Z" fill="#ff0000" fill-opacity="0.26"/>
    <path d="M19.2131 37.8665L31.1513 0H49.6182L37.4935 27.9802H54.6547L18.0939 79.8368L33.5763 37.8665H19.2131Z" fill="#ff0000" fill-opacity="0.26"/>
    <path d="M18.0939 79.6503L33.5762 37.68H47.7529L18.0939 79.6503Z" fill="#d12e2e"/>
    <path d="M66.7794 38.0531H61.3699C60.773 63.1233 41.162 68.2095 31.3378 67.7121L27.9802 72.7485C58.5719 75.36 68.0852 50.3644 66.7794 38.0531Z" fill="#d12e2e"/>
    <path d="M5.78258 37.3069C4.47684 50.7374 13.4305 60.6238 19.5861 63.9814L17.5343 69.0178C8.58059 62.8622 -4.28612e-06 55.2143 0 37.8665L5.78258 37.3069Z" fill="#d12e2e"/>
</svg>
