<svg width="20" height="16" viewBox="0 0 20 16" fill="none" xmlns="http://www.w3.org/2000/svg">
<path d="M1 6C1 4.55752 1.00212 3.57625 1.10092 2.84143C1.19584 2.13538 1.36322 1.80836 1.58579 1.58579C1.80836 1.36322 2.13538 1.19584 2.84143 1.10092C3.57625 1.00212 4.55752 1 6 1H14C15.4425 1 16.4237 1.00212 17.1586 1.10092C17.8646 1.19584 18.1916 1.36322 18.4142 1.58579C18.6368 1.80836 18.8042 2.13538 18.8991 2.84143C18.9979 3.57625 19 4.55752 19 6V10C19 11.4425 18.9979 12.4237 18.8991 13.1586C18.8042 13.8646 18.6368 14.1916 18.4142 14.4142C18.1916 14.6368 17.8646 14.8042 17.1586 14.8991C16.4237 14.9979 15.4425 15 14 15H6C4.55752 15 3.57625 14.9979 2.84143 14.8991C2.13538 14.8042 1.80836 14.6368 1.58579 14.4142C1.36322 14.1916 1.19584 13.8646 1.10092 13.1586C1.00212 12.4237 1 11.4425 1 10V6Z" stroke="#1A65E2" stroke-width="2"/>
<path d="M2 2L7.6 6.2C8.75556 7.06667 9.33333 7.5 10 7.5C10.6667 7.5 11.2444 7.06667 12.4 6.2L18 2" stroke="#1A65E2" stroke-width="2"/>
</svg>
