<svg width="22" height="22" viewBox="0 0 22 22" fill="none" xmlns="http://www.w3.org/2000/svg">
<path d="M9.18157 11.404C8.79104 11.7945 8.79104 12.4277 9.18157 12.8182C9.57209 13.2087 10.2053 13.2087 10.5958 12.8182L9.18157 11.404ZM18.3736 5.04044L19.0807 4.33333L17.6665 2.91912L16.9593 3.62622L18.3736 5.04044ZM19.1816 1.404L18.4745 2.11111L19.8887 3.52532L20.5958 2.81822L19.1816 1.404ZM21.7069 1.70711C22.0974 1.31658 22.0974 0.683417 21.7069 0.292893C21.3164 -0.097631 20.6832 -0.0976309 20.2927 0.292893L21.7069 1.70711ZM10.5958 12.8182L18.3736 5.04044L16.9593 3.62622L9.18157 11.404L10.5958 12.8182ZM20.5958 2.81822L21.7069 1.70711L20.2927 0.292893L19.1816 1.404L20.5958 2.81822Z" fill="#495057"/>
<path d="M8.77778 5.44434H5.00001C3.11439 5.44434 2.17158 5.44434 1.58579 6.03012C1.00001 6.61591 1.00001 7.55872 1.00001 9.44434L1 16.9999C1 18.8855 1 19.8283 1.58579 20.4141C2.17157 20.9999 3.11438 20.9999 5 20.9999H12.5556C14.4412 20.9999 15.384 20.9999 15.9698 20.4141C16.5556 19.8283 16.5556 18.8855 16.5556 16.9999V13.2221" stroke="#495057" stroke-width="2" stroke-linecap="round"/>
</svg>
