<svg width="18" height="22" viewBox="0 0 18 22" fill="none" xmlns="http://www.w3.org/2000/svg">
<path d="M1 8.22217L2.29795 17.5512C2.52666 19.195 2.64101 20.017 3.20562 20.5085C3.77022 20.9999 4.60008 20.9999 6.25979 20.9999H11.7402C13.3999 20.9999 14.2298 20.9999 14.7944 20.5085C15.359 20.017 15.4733 19.195 15.702 17.5512L17 8.22217" stroke="#495057" stroke-width="2" stroke-linecap="round" stroke-linejoin="round"/>
<path d="M5.57129 4.33333V4.33333C5.57129 3.08718 5.57129 2.4641 5.83924 2C6.01478 1.69596 6.26725 1.44349 6.57129 1.26795C7.03539 1 7.65847 1 8.90463 1H9.09509C10.3412 1 10.9643 1 11.4284 1.26795C11.7325 1.44349 11.9849 1.69596 12.1605 2C12.4284 2.4641 12.4284 3.08718 12.4284 4.33333V4.33333" stroke="#495057" stroke-width="2" stroke-linecap="round" stroke-linejoin="round"/>
<path d="M17 4.3335L1 4.3335" stroke="#495057" stroke-width="2" stroke-linecap="round" stroke-linejoin="round"/>
</svg>
