<?xml version="1.0" standalone="no"?>
<!DOCTYPE svg PUBLIC "-//W3C//DTD SVG 20010904//EN"
 "http://www.w3.org/TR/2001/REC-SVG-20010904/DTD/svg10.dtd">
<svg version="1.0" xmlns="http://www.w3.org/2000/svg"
 width="379.000000pt" height="379.000000pt" viewBox="0 0 379.000000 379.000000"
 preserveAspectRatio="xMidYMid meet">
<metadata>
Created by potrace 1.14, written by Peter Selinger 2001-2017
</metadata>
<g transform="translate(0.000000,379.000000) scale(0.100000,-0.100000)"
fill="#000000" stroke="none">
<path d="M2531 2968 c-422 -41 -875 -253 -1316 -617 -149 -123 -392 -360 -508
-496 -33 -38 -80 -93 -104 -121 -70 -81 -199 -249 -287 -374 -88 -124 -185
-273 -181 -278 1 -1 38 22 81 51 226 155 729 429 1104 603 l66 30 0 -106 c1
-105 13 -167 50 -247 81 -175 286 -295 479 -280 106 8 192 53 246 128 l21 30
-60 63 c-130 139 -172 287 -122 432 133 386 846 660 1314 504 77 -25 168 -78
218 -127 l37 -36 10 41 c79 293 4 502 -238 665 -83 55 -268 110 -448 132 -82
11 -270 12 -362 3z"/>
<path d="M3158 1913 c-9 -15 -27 -40 -40 -55 -13 -14 -39 -46 -58 -69 -77 -95
-127 -149 -237 -257 -484 -475 -1018 -690 -1578 -638 -197 18 -442 88 -605
172 -46 24 -85 42 -86 41 -1 -1 13 -33 33 -71 154 -307 459 -550 798 -636 126
-32 323 -39 448 -15 542 104 995 600 1308 1433 40 108 47 144 17 95z"/>
</g>
</svg>
